<svg xmlns="http://www.w3.org/2000/svg" xmlns:xlink="http://www.w3.org/1999/xlink" width="174" height="47" viewBox="0 0 174 47">
    <defs>
        <path id="a" d="M.093 17.064c.568 7.886 7.113 14.195 15.054 14.534 3.03.129 5.876-.59 8.327-1.939 0 0 .004-.004.009-.004.196-.108.39-.22.58-.336 3.899-2.37 8.776-2.458 12.624-.01.096.062.193.122.29.181a15.823 15.823 0 0 0 9.3 2.237c7.808-.528 14.127-6.82 14.65-14.586C61.542 7.977 54.252.354 45.171.354c-2.696 0-5.235.673-7.454 1.853-.004.004-.008.004-.008.004-.213.113-.422.232-.628.355-3.953 2.354-8.917 2.507-12.81.058A15.778 15.778 0 0 0 15.842.2C6.737.201-.568 7.867.093 17.064"/>
        <linearGradient id="c" x1="19.452%" x2="82.483%" y1="57.458%" y2="43.054%">
            <stop offset="0%" stop-color="#FDA58F"/>
            <stop offset="100%" stop-color="#F59189"/>
        </linearGradient>
        <path id="d" d="M.558.54H7.45v12.177H.558z"/>
        <path id="f" d="M.412.172h11.672v17.26H.412z"/>
    </defs>
    <g fill="none" fill-rule="evenodd">
        <g transform="translate(0 7.5)">
            <mask id="b" fill="#fff">
                <use xlink:href="#a"/>
            </mask>
            <path d="M.093 17.064c.568 7.886 7.113 14.195 15.054 14.534 3.03.129 5.876-.59 8.327-1.939 0 0 .004-.004.009-.004.196-.108.39-.22.58-.336 3.899-2.37 8.776-2.458 12.624-.01.096.062.193.122.29.181a15.823 15.823 0 0 0 9.3 2.237c7.808-.528 14.127-6.82 14.65-14.586C61.542 7.977 54.252.354 45.171.354c-2.696 0-5.235.673-7.454 1.853-.004.004-.008.004-.008.004-.213.113-.422.232-.628.355-3.953 2.354-8.917 2.507-12.81.058A15.778 15.778 0 0 0 15.842.2C6.737.201-.568 7.867.093 17.064" mask="url(#b)"/>
        </g>
        <path fill="#F59189" d="M46.5 0L26.193 11.64l-.193.11v23.5l20.436 11.713.064.037L67 35.25v-23.5L46.564.037 46.5 0zM27.285 34.514V12.486L46.5 1.473l19.215 11.013v22.028L46.5 45.527 27.285 34.514z"/>
        <path fill="url(#c)" d="M45.534 38.963a15.624 15.624 0 0 1-9.153-2.194c-.004 0-.004 0-.008-.004a17.45 17.45 0 0 1-.286-.177c-3.79-2.405-8.595-2.318-12.434.009a15.846 15.846 0 0 1-.58.334 15.613 15.613 0 0 1-8.203 1.904C7.047 38.503.6 32.305.04 24.561-.61 15.528 6.585 8 15.554 8c3.054 0 5.9.872 8.303 2.38 3.836 2.405 8.726 2.254 12.619-.057.203-.121.41-.238.62-.35 0 0 .003 0 .007-.003a15.636 15.636 0 0 1 7.343-1.82c8.945 0 16.126 7.487 15.518 16.487-.515 7.627-6.739 13.807-14.43 14.326z"/>
        <g>
            <path fill="#F59189" d="M87.255 29.867v6.617h-6.991v-6.617H79v12.179h1.264v-4.35h6.99v4.35h1.264V29.867zM90.782 42.045h4.825v-1.212h-3.562v-3.107h2.973v-1.213h-2.973V31.08h3.562v-1.212h-4.825zM103.302 29.867h-1.334l-1.95 4.026-1.964-4.026h-1.43l2.681 5.422-3.247 6.756h1.318l2.596-5.36 2.584 5.36h1.41l-3.28-6.773zM108.262 36.483l2.212-4.577 2.236 4.577h-4.448zm-4 5.562h1.318l2.112-4.349h5.576l2.142 4.35h1.38l-6.274-12.947-6.254 12.946zM137.109 29.867l-4.32 9.914-1.729-4.038 2.52-5.876h-1.256l-1.901 4.41-1.85-4.41h-1.377l2.503 5.891-1.682 3.967-4.229-9.858h-1.392l5.545 12.962 2.4-5.57 2.4 5.564 5.61-12.956zM150.448 35.949c0 1.402-.482 2.574-1.473 3.583-.991 1.009-2.146 1.499-3.531 1.499-1.385 0-2.541-.49-3.531-1.499-.992-1.008-1.474-2.18-1.474-3.583 0-1.402.482-2.572 1.473-3.576.991-1.003 2.149-1.49 3.54-1.49 1.39 0 2.544.487 3.53 1.489.986 1.005 1.466 2.174 1.466 3.577m-4.99-6.28c-1.716 0-3.208.624-4.435 1.855-1.226 1.23-1.848 2.709-1.848 4.394 0 1.684.613 3.173 1.821 4.429 1.211 1.258 2.667 1.896 4.327 1.896h.226c1.68 0 3.143-.636 4.35-1.889 1.203-1.25 1.813-2.743 1.813-4.436 0-1.695-.617-3.176-1.833-4.402-1.215-1.225-2.703-1.846-4.42-1.846M156.52 31.927c.572.568.851 1.215.851 1.976 0 .763-.27 1.405-.823 1.963-.526.53-1.108.8-1.777.827v-5.607c.65.044 1.223.32 1.748.84m.85 4.797c.83-.792 1.25-1.744 1.25-2.827s-.412-2.035-1.225-2.832c-.81-.794-1.766-1.197-2.84-1.197h-1.032v12.178h1.25v-3.042l2.878 3.042h1.704l-3.965-4.212c.699-.15 1.362-.521 1.98-1.11M161.694 29.867h-1.264v12.178h4.765v-1.212h-3.501z"/>
            <g transform="translate(166.07 29.328)">
                <mask id="e" fill="#fff">
                    <use xlink:href="#d"/>
                </mask>
                <path fill="#F59189" d="M1.807 11.468V1.773c1.246.056 2.253.523 3.07 1.42.881.97 1.31 2.095 1.31 3.443 0 1.346-.428 2.467-1.31 3.426-.815.889-1.822 1.35-3.07 1.406m3.986-9.126C4.687 1.146 3.217.54 1.424.54H.558v12.178h.866c1.803 0 3.275-.605 4.377-1.796 1.094-1.184 1.65-2.625 1.65-4.285 0-1.66-.559-3.105-1.658-4.294" mask="url(#e)"/>
            </g>
            <g transform="translate(79.744 4.578)">
                <mask id="g" fill="#fff">
                    <use xlink:href="#f"/>
                </mask>
                <path fill="#F59189" d="M11.332 8.842a5.733 5.733 0 0 0-1.628-1.804 4.395 4.395 0 0 0 .937-2.727c0-1.155-.43-2.145-1.278-2.945C8.523.573 7.486.171 6.28.171c-1.209 0-2.255.43-3.111 1.276-.855.847-1.304 1.883-1.334 3.078l-.01.395h1.442l.011-.373c.026-.831.332-1.525.937-2.121.602-.595 1.286-.884 2.087-.884.8 0 1.469.278 2.044.85.573.572.852 1.224.852 1.994 0 .427-.093.852-.275 1.264-.178.402-.428.73-.745.976l-.897.703 1.004.426c.69.297 1.238.817 1.673 1.59.44.779.662 1.593.662 2.418 0 1.213-.423 2.21-1.293 3.047-.875.842-1.895 1.252-3.12 1.252-1.224 0-2.238-.41-3.098-1.25-.857-.837-1.273-1.828-1.273-3.027v-.728H.412v.835c0 1.515.58 2.833 1.722 3.917 1.136 1.077 2.52 1.623 4.113 1.623 1.597 0 2.982-.566 4.12-1.682 1.14-1.118 1.717-2.496 1.717-4.094a5.542 5.542 0 0 0-.752-2.814" mask="url(#g)"/>
            </g>
            <path fill="#F59189" d="M99.872 10.526c1.347 0 2.475.493 3.449 1.507.977 1.019 1.452 2.197 1.452 3.603 0 1.406-.471 2.573-1.44 3.57-.966.993-2.102 1.476-3.472 1.476s-2.514-.483-3.495-1.479c-.982-.996-1.459-2.159-1.459-3.556 0-1.397.485-2.576 1.482-3.601.995-1.023 2.134-1.52 3.483-1.52m-.01 11.527c1.758 0 3.286-.63 4.543-1.875 1.259-1.246 1.897-2.767 1.897-4.52 0-1.75-.632-3.288-1.881-4.57-1.613-1.653-3.584-2.266-5.872-1.762l3.756-4.34h-1.822l-4.762 5.5c-1.485 1.718-2.237 3.469-2.237 5.203 0 1.746.626 3.26 1.863 4.498 1.236 1.238 2.755 1.866 4.514 1.866M116.393 6.142c1.957 0 3.658.72 5.055 2.142 1.398 1.422 2.107 3.151 2.107 5.139 0 1.987-.71 3.712-2.107 5.127-1.396 1.415-3.097 2.133-5.055 2.133-1.957 0-3.653-.717-5.044-2.132-1.39-1.415-2.095-3.14-2.095-5.128 0-1.989.705-3.718 2.096-5.14 1.39-1.42 3.087-2.141 5.043-2.141m7.494 11.547a8.509 8.509 0 0 0 1.133-4.256c0-2.376-.851-4.44-2.53-6.132-1.68-1.693-3.728-2.55-6.086-2.55s-4.406.861-6.086 2.561c-1.679 1.7-2.53 3.742-2.53 6.068 0 2.325.84 4.376 2.495 6.097 1.659 1.723 3.66 2.598 5.951 2.598h.319a8.04 8.04 0 0 0 4.24-1.2 8.761 8.761 0 0 0 3.094-3.186"/>
        </g>
    </g>
</svg>
